<svg xmlns="http://www.w3.org/2000/svg" xml:space="preserve" width="125.59" height="75.144" viewBox="0.205 0.428 125.59 75.144"><path fill="#0066CB" d="M63 65.85c7.598-6.876 12.347-16.812 12.347-27.855 0-11.042-4.749-20.97-12.347-27.846A37.402 37.402 0 0 0 37.804.427C17.021.427.205 17.247.205 37.995c0 20.757 16.816 37.576 37.6 37.576A37.435 37.435 0 0 0 63 65.85"/><path fill="#0066CB" d="M63 65.85c7.598-6.876 12.347-16.812 12.347-27.855 0-11.042-4.749-20.97-12.347-27.846"/><path fill="none" stroke="#0066CB" stroke-width=".31" d="M63 65.85c7.598-6.876 12.347-16.812 12.347-27.855 0-11.042-4.749-20.97-12.347-27.846"/><path fill="#CC0001" d="M88.252.428C78.532.428 69.648 4.106 63 10.15a40.788 40.788 0 0 0-3.799 3.983H66.8a30.991 30.991 0 0 1 2.85 3.976H56.352a47.152 47.152 0 0 0-2.179 3.976h17.654a33.346 33.346 0 0 1 1.564 3.983H52.608a31.596 31.596 0 0 0-1.117 3.976H74.51c.56 2.564.838 5.227.838 7.952 0 4.173-.67 8.188-1.956 11.935H52.61c.447 1.365.95 2.693 1.564 3.982h17.654c-.67 1.375-1.34 2.702-2.179 3.977H56.351c.838 1.39 1.844 2.717 2.85 3.977H66.8A40.89 40.89 0 0 1 63 65.85c6.648 6.037 15.531 9.723 25.252 9.723 20.727 0 37.543-16.819 37.543-37.576 0-20.749-16.817-37.568-37.543-37.568"/><path fill="#231F20" d="M121.828 58.867h.168c.057 0 .111.008.111-.016.057-.03.112-.076.112-.12 0-.048-.056-.093-.112-.116 0-.023-.11-.016-.11-.016h-.169v.268zm0 .61h-.223V58.41h.447a.52.52 0 0 1 .28.054c.055.061.11.16.11.268 0 .121-.056.23-.168.273l.168.474h-.279l-.11-.427h-.226v.426h.001zm.168.39c.503 0 .95-.412.95-.924s-.447-.924-.95-.924c-.502 0-.894.412-.894.924s.392.924.894.924zm-1.229-.924c0-.672.56-1.213 1.23-1.213.67 0 1.228.541 1.228 1.213s-.559 1.213-1.229 1.213-1.229-.54-1.229-1.213M31.937 48.451h-4.749l2.793-14.645-6.425 14.645h-3.91l-.783-14.56-3.128 14.56h-4.302l3.631-19.047h7.431l.111 11.79 5.14-11.79h7.877l-3.686 19.047M84.173 48.26c-1.285.351-2.29.503-3.352.503-2.402 0-3.688-1.198-3.688-3.403 0-.435 0-.9.111-1.39l.28-1.518.223-1.22 2.18-11.83h4.636l-.67 3.556h2.402l-.67 3.762h-2.402l-1.229 6.464c-.056.29-.056.496-.056.641 0 .801.447 1.152 1.564 1.152.56 0 .95-.045 1.285-.145l-.614 3.427M65.626 37.851c0 1.961 1.062 3.305 3.575 4.32 1.9.778 2.234 1.007 2.234 1.71 0 .97-.838 1.402-2.736 1.402-1.397 0-2.738-.189-4.246-.617l-.615 3.578.168.031.894.16c.28.046.671.092 1.23.137 1.116.084 2.01.131 2.624.131 4.973 0 7.264-1.64 7.264-5.174 0-2.122-.95-3.373-3.297-4.313-2.01-.786-2.234-.954-2.234-1.678 0-.84.782-1.267 2.291-1.267.95 0 2.234.092 3.407.237l.671-3.587c-1.229-.168-3.073-.305-4.135-.305-5.307 0-7.15 2.381-7.095 5.235M43.893 41.552a8.606 8.606 0 0 0-1.062-.068c-2.625 0-3.966.793-3.966 2.357 0 .961.67 1.58 1.676 1.58 1.9.001 3.296-1.579 3.352-3.869zm3.184 6.9h-3.91l.111-1.61c-1.229 1.273-2.793 1.876-4.917 1.876-2.57 0-4.302-1.725-4.302-4.228 0-3.777 3.017-5.975 8.212-5.975.56 0 1.23.037 1.9.121.167-.51.223-.732.223-1.007 0-1.03-.838-1.412-3.017-1.412-1.34 0-2.849.168-3.91.435l-.616.16-.447.1.67-3.48c2.346-.596 3.854-.824 5.586-.824 4.022 0 6.146 1.572 6.146 4.548 0 .763-.056 1.343-.39 3.068l-.95 5.494-.168.984-.112.786-.112.542v.421M60.151 38.896c0-.32.056-.587.056-.786 0-1.259-.838-2-2.235-2-1.508 0-2.57.992-2.96 2.777l5.14.01zm2.29 9.22c-1.62.427-3.185.632-4.805.624-5.25 0-7.933-2.38-7.933-6.936 0-5.319 3.464-9.234 8.157-9.234 3.854 0 6.313 2.19 6.313 5.631 0 1.146-.168 2.251-.615 3.823h-9.274c-.056.236-.056.344-.056.488 0 1.793 1.397 2.71 4.134 2.71 1.676 0 3.185-.298 4.861-.978l-.782 3.871M107.582 39.576c0-1.618-.67-3.152-2.569-3.152-2.402 0-3.854 2.824-3.854 5.311 0 2.1 1.005 3.511 2.682 3.48 1.005 0 3.184-1.382 3.575-3.794.11-.556.166-1.173.166-1.845zm4.75 1.853c-.672 5.151-4.303 7.434-9.107 7.434-5.252 0-7.375-3.205-7.375-7.135 0-5.495 3.576-9.21 9.163-9.21 4.86 0 7.431 3.06 7.431 6.99 0 .953 0 1.021-.113 1.921"/><path fill="#FFF" d="M113.895 46.07h.167s.057 0 .112-.023.056-.076.056-.122c0-.038 0-.084-.056-.106 0-.023-.112-.023-.167-.023h-.112v.274zm0 .603h-.224v-1.068h.447c.056 0 .168.008.28.062.055.053.11.16.11.267 0 .114-.056.23-.167.274l.167.466h-.279l-.168-.42h-.166v.42zm.167.39c.504 0 .895-.413.895-.925a.9.9 0 0 0-.895-.916c-.502 0-.949.412-.949.916 0 .512.447.924.95.924zm-1.228-.925c0-.664.56-1.205 1.23-1.205.67 0 1.228.541 1.228 1.205 0 .672-.559 1.213-1.229 1.213a1.225 1.225 0 0 1-1.229-1.213M33.11 47.351h-4.693l2.793-14.644-6.425 14.644H20.54L19.757 32.8l-2.793 14.552h-4.246l3.631-19.047h7.318l.335 11.798 5.196-11.798h7.598L33.11 47.351M85.347 47.17c-1.285.35-2.29.502-3.353.502-2.402 0-3.688-1.205-3.688-3.402 0-.436.056-.9.112-1.389l.28-1.52.222-1.229 2.18-11.828h4.637l-.67 3.556h2.402l-.67 3.77h-2.403l-1.229 6.463c-.056.283-.056.496-.056.642 0 .802.503 1.145 1.62 1.145.503 0 .895-.046 1.23-.146l-.614 3.435"/><path fill="#231F20" d="m97.358 36.31-.11-.489.95-2.427c-.226-.023-.337-.03-.337-.045-.279-.054-.39-.084-.447-.084a1.866 1.866 0 0 0-.446-.038c-1.564 0-2.626.68-4.079 2.511l.504-2.755h-4.86l-2.85 15.468h4.637c.614-3.549.894-5.57 1.285-7.25.614-2.785 2.682-4.052 4.19-3.77.167.031.28.031.502.115l.28.106.781-1.343"/><path fill="#FFF" d="M98.978 31.99c-.39-.153-.447-.153-.502-.168-.225-.054-.392-.084-.392-.092a3.69 3.69 0 0 0-.503-.038c-1.508 0-2.625.687-4.078 2.52l.447-2.352h-4.246l-2.85 15.491h4.693c1.676-9.47 2.402-11.133 4.637-11.133.168 0 .335.015.56.038l.558.114 1.676-4.38M66.798 36.76c0 1.953 1.117 3.304 3.632 4.32 1.9.77 2.18 1 2.18 1.71 0 .96-.839 1.395-2.683 1.395-1.453 0-2.738-.19-4.246-.61l-.67 3.571.223.037.838.152c.28.055.727.1 1.285.14 1.117.083 1.955.128 2.57.128 5.027 0 7.318-1.633 7.318-5.166 0-2.129-.949-3.373-3.352-4.312-1.955-.786-2.18-.96-2.18-1.687 0-.832.783-1.259 2.291-1.259.95 0 2.18.084 3.408.23l.67-3.587c-1.229-.168-3.072-.306-4.189-.306-5.25.001-7.095 2.382-7.095 5.244M44.9 40.453a8.597 8.597 0 0 0-1.063-.06c-2.626 0-3.967.792-3.967 2.356 0 .962.615 1.58 1.676 1.58 1.9.001 3.241-1.587 3.353-3.876zm3.406 6.898h-3.91l.111-1.602c-1.173 1.273-2.793 1.87-4.917 1.87-2.514 0-4.246-1.726-4.246-4.229 0-3.77 3.017-5.975 8.212-5.975.503 0 1.173.045 1.9.122.111-.512.166-.725.166-1.007 0-1.023-.838-1.404-3.017-1.404-1.34 0-2.85.16-3.855.427l-.67.168-.39.1.614-3.488c2.346-.595 3.854-.816 5.586-.816 4.022 0 6.146 1.572 6.146 4.541 0 .763-.056 1.343-.335 3.067l-1.006 5.503-.167.984-.112.786-.056.533-.054.42M61.156 37.805v-.794c0-1.259-.782-1.992-2.179-1.992-1.508 0-2.57.984-3.017 2.778l5.196.008zm2.46 9.218c-1.566.42-3.13.626-4.75.626-5.252 0-7.99-2.38-7.99-6.944 0-5.31 3.463-9.226 8.156-9.226 3.855 0 6.313 2.19 6.313 5.624 0 1.145-.168 2.26-.56 3.83h-9.273c-.056.237-.056.344-.056.488 0 1.794 1.396 2.71 4.078 2.71 1.676 0 3.185-.306 4.86-.985l-.779 3.877M108.7 38.347c0-1.618-.67-3.15-2.57-3.15-2.402 0-3.854 2.822-3.854 5.31 0 2.106 1.006 3.52 2.682 3.487 1.006 0 3.184-1.38 3.575-3.793a9.625 9.625 0 0 0 .166-1.854zm4.86 1.985c-.727 5.15-4.303 7.44-9.106 7.44-5.308 0-7.43-3.214-7.43-7.144 0-5.487 3.63-9.21 9.218-9.21 4.86 0 7.43 3.06 7.43 6.99 0 .961 0 1.023-.112 1.924"/></svg>